<svg xmlns="http://www.w3.org/2000/svg" xmlns:xlink="http://www.w3.org/1999/xlink" version="1.1" width="256" height="256" viewBox="0 0 256 256" xml:space="preserve">

<defs>
</defs>
<g style="stroke: none; stroke-width: 0; stroke-dasharray: none; stroke-linecap: butt; stroke-linejoin: miter; stroke-miterlimit: 10; fill: none; fill-rule: nonzero; opacity: 1;" transform="translate(1.4065934065934016 1.4065934065934016) scale(2.81 2.81)" >
	<path d="M 59.755 65.5 c 0.976 0 1.768 -0.792 1.768 -1.768 v -2.755 c 0 -6.083 -4.053 -11.262 -9.591 -12.977 c -1.264 -0.392 -2.13 -1.555 -2.13 -2.878 v 0 c 0 -0.81 0.33 -1.582 0.906 -2.15 c 1.493 -1.472 2.421 -3.514 2.421 -5.776 l 0 -4.372 c 0 -4.408 -3.428 -8.162 -7.833 -8.319 c -4.625 -0.164 -8.426 3.536 -8.426 8.124 v 4.566 c 0 2.262 0.928 4.304 2.421 5.776 c 0.577 0.569 0.906 1.34 0.906 2.15 v 0 c 0 1.324 -0.865 2.487 -2.13 2.878 c -5.538 1.715 -9.591 6.894 -9.591 12.977 v 2.755 c 0 0.976 0.792 1.768 1.768 1.768 H 59.755 z" style="stroke: none; stroke-width: 1; stroke-dasharray: none; stroke-linecap: butt; stroke-linejoin: miter; stroke-miterlimit: 10; fill: rgb(105,105,105); fill-rule: nonzero; opacity: 1;" transform=" matrix(1 0 0 1 0 0) " stroke-linecap="round" />
	<path d="M 74.771 90 H 15.229 C 6.832 90 0 83.168 0 74.771 V 15.229 C 0 6.832 6.832 0 15.229 0 h 59.542 C 83.168 0 90 6.832 90 15.229 v 59.542 C 90 83.168 83.168 90 74.771 90 z M 15.229 8 C 11.243 8 8 11.243 8 15.229 v 59.542 C 8 78.757 11.243 82 15.229 82 h 59.542 C 78.757 82 82 78.757 82 74.771 V 15.229 C 82 11.243 78.757 8 74.771 8 H 15.229 z" style="stroke: none; stroke-width: 1; stroke-dasharray: none; stroke-linecap: butt; stroke-linejoin: miter; stroke-miterlimit: 10; fill: rgb(105,105,105); fill-rule: nonzero; opacity: 1;" transform=" matrix(1 0 0 1 0 0) " stroke-linecap="round" />
</g>
</svg>